<?xml version="1.0" encoding="UTF-8" standalone="no"?>
<!-- Created with Inkscape (http://www.inkscape.org/) -->

<svg
   xmlns:dc="http://purl.org/dc/elements/1.1/"
   xmlns:cc="http://creativecommons.org/ns#"
   xmlns:rdf="http://www.w3.org/1999/02/22-rdf-syntax-ns#"
   xmlns:svg="http://www.w3.org/2000/svg"
   xmlns="http://www.w3.org/2000/svg"
   xmlns:sodipodi="http://sodipodi.sourceforge.net/DTD/sodipodi-0.dtd"
   xmlns:inkscape="http://www.inkscape.org/namespaces/inkscape"
   width="730.04272"
   height="215.39784"
   id="svg4004"
   version="1.1"
   inkscape:version="0.48.0 r9654"
   sodipodi:docname="color.svg">
  <defs
     id="defs4006">
    <filter
       color-interpolation-filters="sRGB"
       inkscape:collect="always"
       id="filter3891"
       x="-0.029999999"
       width="1.062031"
       y="-0.10610412"
       height="1.2122082">
      <feColorMatrix
         id="feColorMatrix3921"
         type="luminanceToAlpha"
         values="0"
         in="FillPaint" />
      <feGaussianBlur
         inkscape:collect="always"
         stdDeviation="9.2289361702127639"
         id="feGaussianBlur3893"
         result="result1"
         in="SourceAlpha" />
    </filter>
  </defs>
  <sodipodi:namedview
     id="base"
     pagecolor="#ffffff"
     bordercolor="#666666"
     borderopacity="1.0"
     inkscape:pageopacity="0.0"
     inkscape:pageshadow="2"
     inkscape:zoom="0.7"
     inkscape:cx="424.92828"
     inkscape:cy="121.38993"
     inkscape:document-units="px"
     inkscape:current-layer="layer1"
     showgrid="false"
     fit-margin-top="15"
     fit-margin-left="15"
     fit-margin-right="0"
     fit-margin-bottom="0"
     inkscape:window-width="1280"
     inkscape:window-height="949"
     inkscape:window-x="0"
     inkscape:window-y="24"
     inkscape:window-maximized="1" />
  <metadata
     id="metadata4009">
    <rdf:RDF>
      <cc:Work
         rdf:about="">
        <dc:format>image/svg+xml</dc:format>
        <dc:type
           rdf:resource="http://purl.org/dc/dcmitype/StillImage" />
        <dc:title></dc:title>
      </cc:Work>
    </rdf:RDF>
  </metadata>
  <g
     inkscape:label="Layer 1"
     inkscape:groupmode="layer"
     id="layer1"
     transform="translate(2.2474904,-413.16325)">
    <g
       style="fill:#000000;fill-opacity:1"
       id="g3087"
       transform="translate(-85.669038,-458.11409)">
      <text
         sodipodi:linespacing="125%"
         id="text3014-1"
         y="1078.5889"
         x="93.015121"
         style="font-size:36.64468002000000268px;font-style:normal;font-variant:normal;font-weight:bold;font-stretch:normal;text-align:start;line-height:125%;letter-spacing:0px;word-spacing:0px;writing-mode:lr-tb;text-anchor:start;fill:#000000;fill-opacity:1;stroke:none;font-family:Delicious SmallCaps;-inkscape-font-specification:'Delicious SmallCaps, Bold'"
         xml:space="preserve"><tspan
           y="1078.5889"
           x="93.015121"
           id="tspan3016-1"
           sodipodi:role="line">Multimodal Experience Testbed and Laboratory</tspan></text>
      <g
         transform="matrix(1.0215275,0,0,1.0215275,-1.9573122,-22.298468)"
         id="text3833"
         style="font-size:252.47277832000000330px;font-style:normal;font-variant:normal;font-weight:bold;font-stretch:normal;text-align:start;line-height:125%;letter-spacing:0px;word-spacing:0px;writing-mode:lr-tb;text-anchor:start;fill:#000000;stroke:none;font-family:Courier New;-inkscape-font-specification:Courier New Bold;fill-opacity:1">
        <path
           sodipodi:nodetypes="ccccccsscsccccsccccccccscccccssccccccccc"
           inkscape:connector-curvature="0"
           id="path3970"
           d="m 131.84976,931.02794 0,75.32266 3.12255,0 c 6.08165,10e-5 10.39637,1.1917 12.94416,3.5751 2.62987,2.3012 3.94483,5.342 3.94489,9.1225 -6e-5,3.6984 -1.31502,6.7392 -3.94489,9.1226 -2.54779,2.3012 -6.86251,3.4518 -12.94416,3.4518 l -27.16171,0 c -6.0817,0 -10.396419,-1.1506 -12.944157,-3.4518 -2.629921,-2.3834 -3.944882,-5.4653 -3.944887,-9.2458 5e-6,-3.6984 1.273873,-6.6981 3.82161,-8.9993 2.547737,-2.3834 6.492624,-3.575 11.834664,-3.5751 l 0,-98.86871 c -4.43801,-0.4108 -7.807595,-1.76685 -10.108776,-4.06816 -2.218998,-2.30106 -3.328496,-5.17754 -3.328499,-8.62944 3e-6,-3.78038 1.273871,-6.82123 3.82161,-9.12256 2.62992,-2.38322 6.985725,-3.5749 13.067435,-3.57505 l 27.73749,0.12328 34.39449,76.06235 33.77809,-76.18563 27.98405,0.12328 c 6.08155,1.5e-4 10.39627,1.15074 12.94416,3.45177 2.62977,2.30133 3.94473,5.34218 3.94488,9.12256 -1.5e-4,3.4519 -1.15074,6.32838 -3.45177,8.62944 -2.30134,2.30131 -5.62983,3.65736 -9.9855,4.06816 l 0,98.86871 c 5.34189,10e-5 9.28677,1.1917 11.83466,3.5751 2.54759,2.3834 3.82146,5.4242 3.82161,9.1225 -1.5e-4,3.6984 -1.31512,6.7392 -3.94488,9.1226 -2.54789,2.3012 -6.86261,3.4518 -12.94417,3.4518 l -27.28498,0 c -5.99962,0 -10.31433,-1.1506 -12.94416,-3.4518 -2.54783,-2.3834 -3.8217,-5.4653 -3.82161,-9.2458 -9e-5,-3.6984 1.27378,-6.6981 3.82161,-8.9993 2.62983,-2.3834 6.94454,-3.575 12.94416,-3.5751 l 3.24583,0 0,-75.32266 -28.97027,65.09063 -21.94343,0 -29.3401,-65.09063"
           style="fill:#000000;fill-opacity:1" />
        <path
           sodipodi:nodetypes="cccccccccscsccccccscccccccccccccccccccccc"
           inkscape:connector-curvature="0"
           id="path3972"
           d="m 303.04553,969.24403 0,37.10657 64.47425,0 0,-7.6838 c -1.1e-4,-6.08166 1.15048,-10.39637 3.45178,-12.94416 2.38325,-2.62987 5.46519,-3.94483 9.24583,-3.94489 3.6982,6e-5 6.69795,1.31502 8.99927,3.94489 2.38323,2.54779 3.57492,6.8625 3.57506,12.94416 l 0,32.9558 -118.96301,0 c -6.08171,0 -10.43752,-1.1506 -13.06744,-3.4518 -2.54774,-2.3834 -3.82161,-5.4653 -3.82161,-9.2458 0,-3.6984 1.31496,-6.6981 3.94489,-8.9993 2.62992,-2.3834 6.94463,-3.575 12.94416,-3.5751 l 3.94489,0 0,-98.86871 -3.94489,0 c -6.08171,1.2e-4 -10.43752,-1.15047 -13.06744,-3.45178 -2.54774,-2.38323 -3.82161,-5.46517 -3.82161,-9.24582 0,-3.78038 1.27387,-6.82123 3.82161,-9.12256 2.62992,-2.38322 6.98573,-3.5749 13.06744,-3.57505 l 113.41551,0.12328 0,32.46265 c -1.4e-4,5.99962 -1.15073,10.31433 -3.45178,12.94416 -2.30131,2.54783 -5.34216,3.8217 -9.12255,3.82161 -3.78063,9e-5 -6.86257,-1.27378 -9.24583,-3.82161 -2.30129,-2.54764 -3.45188,-6.86236 -3.45177,-12.94416 l 0,-7.19072 -58.92676,0 0,36.49021 22.18999,0 c -7e-5,-6.57472 0.61632,-6.80725 1.84917,-8.69761 2.54766,-4.02697 6.16381,-6.0405 10.84844,-6.04061 3.69824,1.1e-4 6.698,1.31507 8.99927,3.94489 2.38328,2.54784 3.57496,2.86256 3.57506,8.94416 l 0,29.09354 c -10e-5,5.50646 -0.65758,5.20479 -1.97245,7.095 -2.63001,3.86275 -6.16397,5.7941 -10.60188,5.79405 -4.68463,5e-5 -8.30078,-2.01349 -10.84844,-6.04061 -1.23285,-1.8902 -1.84924,-2.16383 -1.84917,-8.82088 l -22.18999,0"
           style="fill:#000000;fill-opacity:1" />
        <path
           sodipodi:nodetypes="ccccccsscccccccscccsccccccccc"
           inkscape:connector-curvature="0"
           id="path3974"
           d="m 474.24127,907.48189 0,98.86871 9.01233,0 c 6.08159,10e-5 10.3963,1.1917 12.94416,3.5751 2.6298,2.3012 3.94476,5.342 3.94489,9.1225 -1.3e-4,3.6984 -1.31509,6.7392 -3.94489,9.1226 -2.54786,2.3012 -6.86257,3.4518 -12.94416,3.4518 l -43.17331,0 c -6.08174,0 -10.43755,-1.1506 -13.06744,-3.4518 -2.54777,-2.3834 -3.82164,-5.4653 -3.82161,-9.2458 -3e-5,-3.6984 1.27384,-6.6981 3.82161,-8.9993 2.62989,-2.3834 6.9857,-3.575 13.06744,-3.5751 l 8.88905,0 0,-98.86871 -27.36766,0 0,7.91588 c 0,6.08179 -1.19171,10.4376 -3.57505,13.06744 -2.30121,2.54782 -5.34206,3.82169 -9.12255,3.82161 -3.69835,8e-5 -6.7392,-1.27379 -9.12255,-3.82161 -2.3012,-2.62984 -3.45178,-6.98565 -3.45178,-13.06744 l 0,-33.31109 130.92094,0.12328 0,33.18781 c -1.4e-4,6.08179 -1.19182,10.4376 -3.57505,13.06744 -2.30132,2.54782 -5.34217,3.82169 -9.12255,3.82161 -3.69846,8e-5 -6.73931,-1.27379 -9.12255,-3.82161 -2.3013,-2.62984 -3.4519,-6.98565 -3.45178,-13.06744 l 0,-7.91588 -27.73749,0"
           style="fill:#000000;fill-opacity:1" />
        <path
           sodipodi:nodetypes="cccscsccccccccccccccccccccccsccccccsccc"
           inkscape:connector-curvature="0"
           id="path3976"
           d="m 609.22787,1031.6226 0,-5.9174 c -6.32834,3.3696 -13.31407,5.8763 -20.95721,7.52 -7.64329,1.7259 -14.58793,2.5888 -20.83393,2.5888 -13.5606,0 -24.5734,-3.5751 -33.03843,-10.7252 -8.46509,-7.2322 -12.69762,-15.2042 -12.69761,-23.9158 -10e-6,-10.60188 5.38311,-20.423 16.14938,-29.46342 10.8484,-9.12248 25.80609,-13.68375 44.87309,-13.68382 7.64314,7e-5 16.47804,0.82192 26.50471,2.46555 l 0,-6.04061 c -9e-5,-3.78043 -1.6438,-6.86237 -4.9311,-9.24583 -3.20532,-2.38328 -9.3692,-3.57496 -18.49166,-3.57505 -7.47892,9e-5 -17.17676,1.47942 -29.09355,4.438 -4.43804,1.06849 -7.88981,1.60269 -10.35532,1.60261 -3.36963,8e-5 -6.24611,-1.1916 -8.62945,-3.57506 -2.3012,-2.46546 -3.45179,-5.58849 -3.45177,-9.3691 -2e-5,-2.13672 0.4109,-3.98588 1.23278,-5.5475 0.82182,-1.56141 1.97241,-2.79419 3.45177,-3.69833 1.47931,-0.98612 4.56125,-2.13671 9.24583,-3.45178 6.24603,-1.72577 12.61537,-3.08183 19.10805,-4.06816 6.49256,-1.06829 12.36879,-1.6025 17.62871,-1.60261 15.69728,1.1e-4 27.86067,3.41079 36.49021,10.23205 8.71151,6.73928 13.06731,15.9851 13.06744,27.73749 l 0,52.02317 -1.68528,0 c 6.08157,10e-5 10.39628,1.1917 12.94416,3.5751 2.62978,2.3012 3.94474,5.342 3.94489,9.1225 -1.5e-4,3.6984 -1.31511,6.7392 -3.94489,9.1226 -2.54788,2.3012 -6.86259,3.4518 -12.94416,3.4518 l -23.58666,0 m 0,-45.24297 c -10.10886,-1.97239 -19.43686,-2.95861 -27.98404,-2.95866 -10.2732,5e-5 -19.1081,2.50669 -26.50471,7.51994 -4.60241,3.20526 -6.90359,6.45157 -6.90355,9.73889 -4e-5,2.3834 1.10946,4.3148 3.3285,5.7941 4.10921,2.7121 9.73889,4.0682 16.88904,4.0682 6.08164,0 12.9441,-1.1917 20.58738,-3.5751 7.72532,-2.3833 14.58778,-5.6296 20.58738,-9.73893 l 0,-10.84844"
           style="fill:#000000;fill-opacity:1" />
        <path
           sodipodi:nodetypes="cccccccccscsccccccscccccccc"
           inkscape:connector-curvature="0"
           id="path3978"
           d="m 707.9446,907.48189 0,98.86871 54.48875,0 0,-9.91585 c -1.2e-4,-6.08165 1.15047,-10.39636 3.45178,-12.94416 2.38324,-2.62986 5.46518,-3.94483 9.24583,-3.94489 3.69819,6e-5 6.69795,1.31503 8.99927,3.94489 2.38323,2.5478 3.57491,6.86251 3.57506,12.94416 l 0,35.18785 -113.70267,0 c -6.08172,0 -10.43753,-1.1506 -13.06744,-3.4518 -2.54775,-2.3834 -3.82162,-5.4653 -3.82161,-9.2458 -10e-6,-3.6984 1.27386,-6.6981 3.82161,-8.9993 2.62991,-2.3834 6.98572,-3.575 13.06744,-3.5751 l 8.67004,0 0,-98.86871 -8.67004,0 c -6.08172,1.2e-4 -10.43753,-1.15047 -13.06744,-3.45178 -2.54775,-2.38323 -3.82162,-5.46517 -3.82161,-9.24582 -10e-6,-3.78038 1.27386,-6.82123 3.82161,-9.12256 2.62991,-2.38322 6.98572,-3.5749 13.06744,-3.57505 l 42.73531,0.12328 c 6.08161,1.5e-4 10.39633,1.15074 12.94416,3.45177 2.62983,2.30133 3.94479,5.34218 3.94488,9.12256 -9e-5,3.78065 -1.31505,6.86259 -3.94488,9.24582 -2.54783,2.30131 -6.86255,3.4519 -12.94416,3.45178 l -8.79333,0"
           style="fill:#000000;fill-opacity:1" />
      </g>
    </g>
  </g>
</svg>
