<?xml version="1.0" encoding="UTF-8" standalone="no"?>
<!-- Created with Inkscape (http://www.inkscape.org/) -->

<svg
   xmlns:dc="http://purl.org/dc/elements/1.1/"
   xmlns:cc="http://creativecommons.org/ns#"
   xmlns:rdf="http://www.w3.org/1999/02/22-rdf-syntax-ns#"
   xmlns:svg="http://www.w3.org/2000/svg"
   xmlns="http://www.w3.org/2000/svg"
   xmlns:sodipodi="http://sodipodi.sourceforge.net/DTD/sodipodi-0.dtd"
   xmlns:inkscape="http://www.inkscape.org/namespaces/inkscape"
   width="730.04272"
   height="215.39784"
   id="svg4004"
   version="1.1"
   inkscape:version="0.48.2 r9819"
   sodipodi:docname="color.svg"
   inkscape:export-filename="../png-bitmap-exports/color_transparent_small.png"
   inkscape:export-xdpi="30"
   inkscape:export-ydpi="30">
  <defs
     id="defs4006" />
  <sodipodi:namedview
     id="base"
     pagecolor="#ffffff"
     bordercolor="#666666"
     borderopacity="1.0"
     inkscape:pageopacity="0.0"
     inkscape:pageshadow="2"
     inkscape:zoom="0.98994949"
     inkscape:cx="424.92828"
     inkscape:cy="121.38993"
     inkscape:document-units="px"
     inkscape:current-layer="layer1"
     showgrid="false"
     fit-margin-top="15"
     fit-margin-left="15"
     fit-margin-right="0"
     fit-margin-bottom="0"
     inkscape:window-width="1600"
     inkscape:window-height="1125"
     inkscape:window-x="0"
     inkscape:window-y="24"
     inkscape:window-maximized="1"
     showguides="true"
     inkscape:guide-bbox="true" />
  <metadata
     id="metadata4009">
    <rdf:RDF>
      <cc:Work
         rdf:about="">
        <dc:format>image/svg+xml</dc:format>
        <dc:type
           rdf:resource="http://purl.org/dc/dcmitype/StillImage" />
        <dc:title></dc:title>
      </cc:Work>
    </rdf:RDF>
  </metadata>
  <g
     inkscape:label="Layer 1"
     inkscape:groupmode="layer"
     id="layer1"
     transform="translate(2.2474904,-413.16325)">
    <g
       style="fill:#c19a3d;fill-opacity:1"
       id="g3087"
       transform="translate(-85.669038,-458.11409)">
      <g
         style="font-size:36.64468002px;font-style:normal;font-variant:normal;font-weight:bold;font-stretch:normal;text-align:start;line-height:125%;letter-spacing:0px;word-spacing:0px;writing-mode:lr-tb;text-anchor:start;fill:#c19a3d;stroke:none;font-family:Delicious SmallCaps;-inkscape-font-specification:'Delicious SmallCaps, Bold'"
         id="text3014-1">
        <path
           d="m 117.2739,1055.5027 -3.88434,0 -6.77926,19.495 -6.779268,-19.495 -3.884336,0 0,23.0862 2.931574,0 0,-15.7572 c 0,-1.246 -0.183223,-3.1515 -0.183223,-3.1515 l 6.632683,18.9087 2.56513,0 6.63269,-18.872 c 0,0 -0.18322,1.9421 -0.18322,3.188 l 0,15.684 2.93157,0 0,-23.0862"
           style=""
           id="path3011" />
        <path
           d="m 129.77661,1079.1752 c 4.58058,0 6.30288,-3.6278 6.30288,-7.732 l 0,-11.6897 -2.85828,0 0,11.5797 c 0,2.9682 -0.69626,5.4967 -3.4446,5.4967 -2.74835,0 -3.4446,-2.675 -3.4446,-5.4967 l 0,-11.5797 -2.85829,0 0,11.5797 c 0,4.0309 1.72231,7.842 6.30289,7.842"
           style=""
           id="path3013" />
        <path
           d="m 142.62,1078.5889 9.41768,0 0,-2.3453 -6.63269,0 0,-16.4901 -2.78499,0 0,18.8354"
           style=""
           id="path3015" />
        <path
           d="m 161.27901,1062.2087 4.69052,0 0,-2.4552 -12.16604,0 0,2.4552 4.65388,0 0,16.3802 2.82164,0 0,-16.3802"
           style=""
           id="path3017" />
        <path
           d="m 170.31822,1078.5889 3.00487,0 0,-18.8354 -3.00487,0 0,18.8354"
           style=""
           id="path3019" />
        <path
           d="m 195.11637,1078.5889 2.85828,0 0,-18.8354 -3.59118,0 -4.54394,12.7157 c 0,0 -0.21987,0.6596 -0.6596,2.1987 -0.43974,-1.4658 -0.7329,-2.1254 -0.76954,-2.2353 l -4.91039,-12.6791 -3.59118,0 0,18.8354 2.85829,0 0,-12.789 0,-0.9528 5.27683,13.7418 2.41855,0 4.65388,-13.5219 0,13.5219"
           style=""
           id="path3021" />
        <path
           d="m 210.57412,1079.1752 c 4.91038,0 6.8892,-5.4967 6.8892,-10.004 0,-4.5073 -1.97882,-10.004 -6.8892,-10.004 -4.83709,0 -6.8892,5.4234 -6.8892,9.8941 0,4.5072 1.94217,10.1139 6.8892,10.1139 m 0,-17.6628 c 3.15144,0 3.99427,4.2875 3.99427,7.6588 0,3.3346 -0.7329,7.6587 -3.99427,7.6587 -3.22473,0 -4.03091,-4.1775 -4.03091,-7.4755 0,-3.4446 0.80618,-7.842 4.03091,-7.842"
           style=""
           id="path3023" />
        <path
           d="m 228.59815,1078.5889 c 4.17749,0 7.51216,-2.9316 7.51216,-9.3811 0,-6.0097 -2.52849,-9.4543 -7.219,-9.4543 l -5.75322,0 0,18.8354 5.46006,0 m 0.18322,-16.5634 c 3.1148,0 4.43401,2.7117 4.43401,7.219 0,4.3607 -1.42914,7.0724 -4.61723,7.0724 l -2.60177,0 0,-14.2914 2.78499,0"
           style=""
           id="path3025" />
        <path
           d="m 251.6757,1078.5889 3.04151,0 -6.22959,-18.8354 -2.96822,0 -6.19295,18.8354 3.04151,0 1.94216,-5.9365 5.38677,0 1.97881,5.9365 m -4.65387,-15.3542 2.12539,7.0725 -4.28743,0 2.16204,-7.0725"
           style=""
           id="path3027" />
        <path
           d="m 258.85234,1078.5889 9.41769,0 0,-2.3453 -6.63269,0 0,-16.4901 -2.785,0 0,18.8354"
           style=""
           id="path3029" />
        <path
           d="m 294.83627,1055.5027 -11.87288,0 0,23.0862 12.23932,0 0,-2.5285 -9.30775,0 0,-8.2451 6.85256,0 0,-2.5285 -6.85256,0 0,-7.3289 8.94131,0 0,-2.4552"
           style=""
           id="path3031" />
        <path
           d="m 309.13228,1078.5889 3.29802,0 -6.08302,-9.7842 5.38677,-9.0512 -3.00486,0 -3.92098,6.5228 -4.10421,-6.5228 -3.15144,0 5.64328,9.1612 -5.78986,9.6742 3.15144,0 4.21414,-7.1091 4.36072,7.1091"
           style=""
           id="path3033" />
        <path
           d="m 326.14171,1070.4904 c 1.35585,-1.1726 2.0521,-2.9316 2.0521,-4.8737 0,-3.0049 -1.94217,-5.8632 -7.36558,-5.8632 l -4.36071,0 0,18.8354 2.89493,0 0,-7.219 c 0.14657,0.073 1.31921,0.6229 2.3819,0.6229 1.79559,0 3.29802,-0.5496 4.39736,-1.5024 m -5.31348,-8.4649 c 3.04151,0 4.47065,1.5024 4.47065,3.5545 0,2.3086 -1.42914,4.1042 -3.92098,4.1042 -0.87947,0 -2.01545,-0.5497 -2.01545,-0.5497 l 0,-7.109 1.46578,0"
           style=""
           id="path3035" />
        <path
           d="m 333.14369,1078.5889 10.66361,0 0,-2.4186 -7.76868,0 0,-6.1929 5.71657,0 0,-2.4186 -5.71657,0 0,-5.46 7.43887,0 0,-2.3453 -10.3338,0 0,18.8354"
           style=""
           id="path3037" />
        <path
           d="m 359.10646,1078.5889 2.71171,0 0,-0.9894 -5.4967,-5.8265 c 3.07815,-0.8795 4.58058,-3.3347 4.58058,-6.1563 0,-3.0049 -1.97882,-5.8632 -7.36558,-5.8632 l -4.36072,0 0,18.8354 2.89493,0 0,-7.0725 c 0,0 0.51303,0.2566 0.69625,0.3298 l 6.33953,6.7427 m -5.56999,-16.5634 c 3.0415,0 4.47065,1.5024 4.47065,3.5545 0,2.3086 -1.42914,4.1042 -3.92098,4.1042 -0.98941,0 -1.97881,-0.513 -2.01546,-0.5497 l 0,-7.109 1.46579,0"
           style=""
           id="path3039" />
        <path
           d="m 366.78238,1078.5889 3.00486,0 0,-18.8354 -3.00486,0 0,18.8354"
           style=""
           id="path3041" />
        <path
           d="m 376.37296,1078.5889 10.6636,0 0,-2.4186 -7.76867,0 0,-6.1929 5.71657,0 0,-2.4186 -5.71657,0 0,-5.46 7.43887,0 0,-2.3453 -10.3338,0 0,18.8354"
           style=""
           id="path3043" />
        <path
           d="m 402.15252,1078.5889 2.85828,0 0,-18.872 -2.89493,0 0,11.7629 c 0,0.1466 0,0.3664 0.0367,1.3192 l -6.00973,-13.0821 -3.59118,0 0,18.872 2.89493,0 0,-12.7157 c 0,-0.1833 -0.0367,-0.4031 -0.0733,-1.3559 l 6.77927,14.0716"
           style=""
           id="path3045" />
        <path
           d="m 418.43535,1079.1752 c 2.96821,0 5.02032,-1.4292 5.56999,-1.8323 l -1.28256,-1.8688 c -0.47638,0.3298 -2.19869,1.3925 -4.1775,1.3925 -1.86887,0 -3.1148,-1.0994 -3.95762,-2.785 -0.65961,-1.2826 -0.87948,-3.0782 -0.87948,-4.8005 0,-1.8689 0.36645,-3.7377 1.02606,-5.0569 0.84282,-1.7223 2.45519,-2.8217 3.7744,-2.8217 1.53907,0 2.71171,0.3298 4.14085,1.0627 l 1.06269,-1.9055 c -0.9894,-0.623 -2.82164,-1.3925 -5.20354,-1.3925 -2.41855,0 -4.43401,1.1726 -5.75322,3.1148 -1.24591,1.7589 -1.94217,4.2508 -1.94217,6.8892 0,4.6172 1.94218,10.004 7.6221,10.004"
           style=""
           id="path3047" />
        <path
           d="m 428.7634,1078.5889 10.6636,0 0,-2.4186 -7.76867,0 0,-6.1929 5.71657,0 0,-2.4186 -5.71657,0 0,-5.46 7.43887,0 0,-2.3453 -10.3338,0 0,18.8354"
           style=""
           id="path3049" />
        <path
           d="m 466.9941,1058.0678 0,-2.5651 -14.1082,0 0,2.5651 5.60664,0 0,20.5211 2.85828,0 0,-20.5211 5.64328,0"
           style=""
           id="path3051" />
        <path
           d="m 469.20139,1078.5889 10.6636,0 0,-2.4186 -7.76867,0 0,-6.1929 5.71657,0 0,-2.4186 -5.71657,0 0,-5.46 7.43887,0 0,-2.3453 -10.3338,0 0,18.8354"
           style=""
           id="path3053" />
        <path
           d="m 489.11777,1079.1752 c 3.26137,0 5.89979,-2.0521 5.89979,-5.2402 0,-2.2353 -1.0627,-3.8843 -3.04151,-5.057 l -3.15144,-1.9421 c -1.13598,-0.6596 -2.0521,-1.6857 -2.0521,-3.0782 0,-1.5757 1.20927,-2.4185 2.74835,-2.4185 1.61236,0 2.74835,1.1726 3.07815,1.539 l 1.7223,-1.3925 c -0.36645,-0.513 -1.97881,-2.4185 -4.80045,-2.4185 -3.33466,0 -5.56999,1.7956 -5.56999,5.0203 0,2.272 1.35585,3.8843 2.89493,4.8371 l 3.48124,2.0888 c 1.09934,0.6962 1.90552,1.7589 1.90552,2.7849 0,1.8323 -1.35585,2.9683 -3.07815,2.9683 -0.76954,0 -1.57572,-0.3665 -2.27197,-0.7329 -0.62296,-0.3665 -1.09934,-0.6963 -1.35585,-0.8795 l -1.28257,2.0155 c 0.51303,0.3664 2.67507,1.9055 4.87375,1.9055"
           style=""
           id="path3055" />
        <path
           d="m 505.39544,1062.2087 4.69052,0 0,-2.4552 -12.16603,0 0,2.4552 4.65387,0 0,16.3802 2.82164,0 0,-16.3802"
           style=""
           id="path3057" />
        <path
           d="m 519.45498,1079.1752 c 4.1042,0 7.07243,-2.3086 7.07243,-6.083 0,-2.1621 -0.95277,-3.9577 -3.4446,-4.6539 0.62296,-0.4031 1.02605,-0.7329 1.42914,-1.1726 0.54967,-0.6596 0.95276,-1.9422 0.95276,-2.6751 0,-2.0521 -1.0627,-3.6645 -2.96822,-4.3974 -0.87947,-0.3298 -1.94217,-0.4397 -3.11479,-0.4397 l -4.94704,0 0,18.6155 c 0.58632,0.1466 3.33467,0.8062 5.02032,0.8062 m 2.01546,-16.7833 c 0.62296,0.2932 1.13599,1.0627 1.13599,2.1621 0,2.0154 -1.50244,3.0415 -3.29802,3.0048 l -1.97882,-0.037 0,-5.57 2.01546,0 c 0.84283,0 1.57572,0.1466 2.12539,0.4397 m 0.95276,8.0252 c 0.91612,0.623 1.20928,1.5757 1.20928,2.6751 0,2.4552 -1.75895,3.6644 -4.25078,3.6644 -0.62296,0 -1.50244,-0.1832 -2.05211,-0.3298 l 0,-6.596 1.90553,0 c 1.61236,0 2.56512,0.1466 3.18808,0.5863"
           style=""
           id="path3059" />
        <path
           d="m 531.96973,1078.5889 10.6636,0 0,-2.4186 -7.76867,0 0,-6.1929 5.71657,0 0,-2.4186 -5.71657,0 0,-5.46 7.43887,0 0,-2.3453 -10.3338,0 0,18.8354"
           style=""
           id="path3061" />
        <path
           d="m 553.46183,1078.5889 c 4.17749,0 7.51216,-2.9316 7.51216,-9.3811 0,-6.0097 -2.52849,-9.4543 -7.219,-9.4543 l -5.75322,0 0,18.8354 5.46006,0 m 0.18322,-16.5634 c 3.1148,0 4.43401,2.7117 4.43401,7.219 0,4.3607 -1.42915,7.0724 -4.61723,7.0724 l -2.60177,0 0,-14.2914 2.78499,0"
           style=""
           id="path3063" />
        <path
           d="m 587.5614,1078.5889 3.04151,0 -6.2296,-18.8354 -2.96822,0 -6.19295,18.8354 3.04151,0 1.94217,-5.9365 5.38677,0 1.97881,5.9365 m -4.65387,-15.3542 2.12539,7.0725 -4.28743,0 2.16204,-7.0725"
           style=""
           id="path3065" />
        <path
           d="m 604.48552,1078.5889 2.85829,0 0,-18.872 -2.89493,0 0,11.7629 c 0,0.1466 0,0.3664 0.0366,1.3192 l -6.00972,-13.0821 -3.59118,0 0,18.872 2.89493,0 0,-12.7157 c 0,-0.1833 -0.0367,-0.4031 -0.0733,-1.3559 l 6.77926,14.0716"
           style=""
           id="path3067" />
        <path
           d="m 619.52247,1078.5889 c 4.17749,0 7.51216,-2.9316 7.51216,-9.3811 0,-6.0097 -2.52849,-9.4543 -7.219,-9.4543 l -5.75322,0 0,18.8354 5.46006,0 m 0.18322,-16.5634 c 3.1148,0 4.43401,2.7117 4.43401,7.219 0,4.3607 -1.42915,7.0724 -4.61723,7.0724 l -2.60177,0 0,-14.2914 2.78499,0"
           style=""
           id="path3069" />
        <path
           d="m 646.18317,1055.5027 -2.785,0 0,23.0862 10.73689,0 0,-2.4186 -7.95189,0 0,-20.6676"
           style=""
           id="path3071" />
        <path
           d="m 667.65005,1078.5889 3.04151,0 -6.22959,-18.8354 -2.96822,0 -6.19295,18.8354 3.04151,0 1.94216,-5.9365 5.38677,0 1.97881,5.9365 m -4.65387,-15.3542 2.12539,7.0725 -4.28743,0 2.16204,-7.0725"
           style=""
           id="path3073" />
        <path
           d="m 679.84701,1079.1752 c 4.1042,0 7.07243,-2.3086 7.07243,-6.083 0,-2.1621 -0.95277,-3.9577 -3.4446,-4.6539 0.62296,-0.4031 1.02605,-0.7329 1.42914,-1.1726 0.54967,-0.6596 0.95276,-1.9422 0.95276,-2.6751 0,-2.0521 -1.0627,-3.6645 -2.96822,-4.3974 -0.87947,-0.3298 -1.94217,-0.4397 -3.1148,-0.4397 l -4.94703,0 0,18.6155 c 0.58632,0.1466 3.33467,0.8062 5.02032,0.8062 m 2.01546,-16.7833 c 0.62296,0.2932 1.13599,1.0627 1.13599,2.1621 0,2.0154 -1.50244,3.0415 -3.29803,3.0048 l -1.97881,-0.037 0,-5.57 2.01546,0 c 0.84283,0 1.57572,0.1466 2.12539,0.4397 m 0.95276,8.0252 c 0.91612,0.623 1.20928,1.5757 1.20928,2.6751 0,2.4552 -1.75895,3.6644 -4.25079,3.6644 -0.62295,0 -1.50243,-0.1832 -2.0521,-0.3298 l 0,-6.596 1.90553,0 c 1.61236,0 2.56512,0.1466 3.18808,0.5863"
           style=""
           id="path3075" />
        <path
           d="m 698.33487,1079.1752 c 4.91038,0 6.8892,-5.4967 6.8892,-10.004 0,-4.5073 -1.97882,-10.004 -6.8892,-10.004 -4.83709,0 -6.8892,5.4234 -6.8892,9.8941 0,4.5072 1.94217,10.1139 6.8892,10.1139 m 0,-17.6628 c 3.15144,0 3.99427,4.2875 3.99427,7.6588 0,3.3346 -0.7329,7.6587 -3.99427,7.6587 -3.22473,0 -4.03091,-4.1775 -4.03091,-7.4755 0,-3.4446 0.80618,-7.842 4.03091,-7.842"
           style=""
           id="path3077" />
        <path
           d="m 720.82954,1078.5889 2.71171,0 0,-0.9894 -5.4967,-5.8265 c 3.07815,-0.8795 4.58058,-3.3347 4.58058,-6.1563 0,-3.0049 -1.97881,-5.8632 -7.36558,-5.8632 l -4.36071,0 0,18.8354 2.89493,0 0,-7.0725 c 0,0 0.51302,0.2566 0.69624,0.3298 l 6.33953,6.7427 m -5.56999,-16.5634 c 3.04151,0 4.47065,1.5024 4.47065,3.5545 0,2.3086 -1.42914,4.1042 -3.92098,4.1042 -0.9894,0 -1.97881,-0.513 -2.01545,-0.5497 l 0,-7.109 1.46578,0"
           style=""
           id="path3079" />
        <path
           d="m 738.36288,1078.5889 3.04151,0 -6.22959,-18.8354 -2.96822,0 -6.19295,18.8354 3.0415,0 1.94217,-5.9365 5.38677,0 1.97881,5.9365 m -4.65387,-15.3542 2.12539,7.0725 -4.28743,0 2.16204,-7.0725"
           style=""
           id="path3081" />
        <path
           d="m 749.31161,1062.2087 4.69052,0 0,-2.4552 -12.16604,0 0,2.4552 4.65388,0 0,16.3802 2.82164,0 0,-16.3802"
           style=""
           id="path3083" />
        <path
           d="m 764.32388,1079.1752 c 4.91039,0 6.8892,-5.4967 6.8892,-10.004 0,-4.5073 -1.97881,-10.004 -6.8892,-10.004 -4.83709,0 -6.8892,5.4234 -6.8892,9.8941 0,4.5072 1.94218,10.1139 6.8892,10.1139 m 0,-17.6628 c 3.15144,0 3.99427,4.2875 3.99427,7.6588 0,3.3346 -0.73289,7.6587 -3.99427,7.6587 -3.22472,0 -4.03091,-4.1775 -4.03091,-7.4755 0,-3.4446 0.80619,-7.842 4.03091,-7.842"
           style=""
           id="path3085" />
        <path
           d="m 786.81856,1078.5889 2.7117,0 0,-0.9894 -5.4967,-5.8265 c 3.07815,-0.8795 4.58059,-3.3347 4.58059,-6.1563 0,-3.0049 -1.97882,-5.8632 -7.36558,-5.8632 l -4.36072,0 0,18.8354 2.89493,0 0,-7.0725 c 0,0 0.51303,0.2566 0.69625,0.3298 l 6.33953,6.7427 m -5.56999,-16.5634 c 3.0415,0 4.47065,1.5024 4.47065,3.5545 0,2.3086 -1.42915,4.1042 -3.92098,4.1042 -0.98941,0 -1.97882,-0.513 -2.01546,-0.5497 l 0,-7.109 1.46579,0"
           style=""
           id="path3087" />
        <path
           d="m 800.24769,1071.663 5.71657,-11.9095 -2.93157,0 -4.14085,8.868 -4.1042,-8.868 -3.07816,0 5.67993,11.9095 0,6.9259 2.85828,0 0,-6.9259"
           style=""
           id="path3089" />
      </g>
      <g
         transform="matrix(1.0215275,0,0,1.0215275,-1.9573122,-22.298468)"
         id="text3833"
         style="font-size:252.47277832px;font-style:normal;font-variant:normal;font-weight:bold;font-stretch:normal;text-align:start;line-height:125%;letter-spacing:0px;word-spacing:0px;writing-mode:lr-tb;text-anchor:start;fill:#c19a3d;stroke:none;font-family:Courier New;-inkscape-font-specification:Courier New Bold">
        <path
           sodipodi:nodetypes="ccccccsscsccccsccccccccscccccssccccccccc"
           inkscape:connector-curvature="0"
           id="path3970"
           d="m 131.84976,931.02794 0,75.32266 3.12255,0 c 6.08165,10e-5 10.39637,1.1917 12.94416,3.5751 2.62987,2.3012 3.94483,5.342 3.94489,9.1225 -6e-5,3.6984 -1.31502,6.7392 -3.94489,9.1226 -2.54779,2.3012 -6.86251,3.4518 -12.94416,3.4518 l -27.16171,0 c -6.0817,0 -10.396419,-1.1506 -12.944157,-3.4518 -2.629921,-2.3834 -3.944882,-5.4653 -3.944887,-9.2458 5e-6,-3.6984 1.273873,-6.6981 3.82161,-8.9993 2.547737,-2.3834 6.492624,-3.575 11.834664,-3.5751 l 0,-98.86871 c -4.43801,-0.4108 -7.807595,-1.76685 -10.108776,-4.06816 -2.218998,-2.30106 -3.328496,-5.17754 -3.328499,-8.62944 3e-6,-3.78038 1.273871,-6.82123 3.82161,-9.12256 2.62992,-2.38322 6.985725,-3.5749 13.067435,-3.57505 l 27.73749,0.12328 34.39449,76.06235 33.77809,-76.18563 27.98405,0.12328 c 6.08155,1.5e-4 10.39627,1.15074 12.94416,3.45177 2.62977,2.30133 3.94473,5.34218 3.94488,9.12256 -1.5e-4,3.4519 -1.15074,6.32838 -3.45177,8.62944 -2.30134,2.30131 -5.62983,3.65736 -9.9855,4.06816 l 0,98.86871 c 5.34189,10e-5 9.28677,1.1917 11.83466,3.5751 2.54759,2.3834 3.82146,5.4242 3.82161,9.1225 -1.5e-4,3.6984 -1.31512,6.7392 -3.94488,9.1226 -2.54789,2.3012 -6.86261,3.4518 -12.94417,3.4518 l -27.28498,0 c -5.99962,0 -10.31433,-1.1506 -12.94416,-3.4518 -2.54783,-2.3834 -3.8217,-5.4653 -3.82161,-9.2458 -9e-5,-3.6984 1.27378,-6.6981 3.82161,-8.9993 2.62983,-2.3834 6.94454,-3.575 12.94416,-3.5751 l 3.24583,0 0,-75.32266 -28.97027,65.09063 -21.94343,0 -29.3401,-65.09063" />
        <path
           sodipodi:nodetypes="cccccccccscsccccccscccccccccccccccccccccc"
           inkscape:connector-curvature="0"
           id="path3972"
           d="m 303.04553,969.24403 0,37.10657 64.47425,0 0,-7.6838 c -1.1e-4,-6.08166 1.15048,-10.39637 3.45178,-12.94416 2.38325,-2.62987 5.46519,-3.94483 9.24583,-3.94489 3.6982,6e-5 6.69795,1.31502 8.99927,3.94489 2.38323,2.54779 3.57492,6.8625 3.57506,12.94416 l 0,32.9558 -118.96301,0 c -6.08171,0 -10.43752,-1.1506 -13.06744,-3.4518 -2.54774,-2.3834 -3.82161,-5.4653 -3.82161,-9.2458 0,-3.6984 1.31496,-6.6981 3.94489,-8.9993 2.62992,-2.3834 6.94463,-3.575 12.94416,-3.5751 l 3.94489,0 0,-98.86871 -3.94489,0 c -6.08171,1.2e-4 -10.43752,-1.15047 -13.06744,-3.45178 -2.54774,-2.38323 -3.82161,-5.46517 -3.82161,-9.24582 0,-3.78038 1.27387,-6.82123 3.82161,-9.12256 2.62992,-2.38322 6.98573,-3.5749 13.06744,-3.57505 l 113.41551,0.12328 0,32.46265 c -1.4e-4,5.99962 -1.15073,10.31433 -3.45178,12.94416 -2.30131,2.54783 -5.34216,3.8217 -9.12255,3.82161 -3.78063,9e-5 -6.86257,-1.27378 -9.24583,-3.82161 -2.30129,-2.54764 -3.45188,-6.86236 -3.45177,-12.94416 l 0,-7.19072 -58.92676,0 0,36.49021 22.18999,0 c -7e-5,-6.57472 0.61632,-6.80725 1.84917,-8.69761 2.54766,-4.02697 6.16381,-6.0405 10.84844,-6.04061 3.69824,1.1e-4 6.698,1.31507 8.99927,3.94489 2.38328,2.54784 3.57496,2.86256 3.57506,8.94416 l 0,29.09354 c -10e-5,5.50646 -0.65758,5.20479 -1.97245,7.095 -2.63001,3.86275 -6.16397,5.7941 -10.60188,5.79405 -4.68463,5e-5 -8.30078,-2.01349 -10.84844,-6.04061 -1.23285,-1.8902 -1.84924,-2.16383 -1.84917,-8.82088 l -22.18999,0" />
        <path
           sodipodi:nodetypes="ccccccsscccccccscccsccccccccc"
           inkscape:connector-curvature="0"
           id="path3974"
           d="m 474.24127,907.48189 0,98.86871 9.01233,0 c 6.08159,10e-5 10.3963,1.1917 12.94416,3.5751 2.6298,2.3012 3.94476,5.342 3.94489,9.1225 -1.3e-4,3.6984 -1.31509,6.7392 -3.94489,9.1226 -2.54786,2.3012 -6.86257,3.4518 -12.94416,3.4518 l -43.17331,0 c -6.08174,0 -10.43755,-1.1506 -13.06744,-3.4518 -2.54777,-2.3834 -3.82164,-5.4653 -3.82161,-9.2458 -3e-5,-3.6984 1.27384,-6.6981 3.82161,-8.9993 2.62989,-2.3834 6.9857,-3.575 13.06744,-3.5751 l 8.88905,0 0,-98.86871 -27.36766,0 0,7.91588 c 0,6.08179 -1.19171,10.4376 -3.57505,13.06744 -2.30121,2.54782 -5.34206,3.82169 -9.12255,3.82161 -3.69835,8e-5 -6.7392,-1.27379 -9.12255,-3.82161 -2.3012,-2.62984 -3.45178,-6.98565 -3.45178,-13.06744 l 0,-33.31109 130.92094,0.12328 0,33.18781 c -1.4e-4,6.08179 -1.19182,10.4376 -3.57505,13.06744 -2.30132,2.54782 -5.34217,3.82169 -9.12255,3.82161 -3.69846,8e-5 -6.73931,-1.27379 -9.12255,-3.82161 -2.3013,-2.62984 -3.4519,-6.98565 -3.45178,-13.06744 l 0,-7.91588 -27.73749,0" />
        <path
           sodipodi:nodetypes="cccscsccccccccccccccccccccccsccccccsccc"
           inkscape:connector-curvature="0"
           id="path3976"
           d="m 609.22787,1031.6226 0,-5.9174 c -6.32834,3.3696 -13.31407,5.8763 -20.95721,7.52 -7.64329,1.7259 -14.58793,2.5888 -20.83393,2.5888 -13.5606,0 -24.5734,-3.5751 -33.03843,-10.7252 -8.46509,-7.2322 -12.69762,-15.2042 -12.69761,-23.9158 -10e-6,-10.60188 5.38311,-20.423 16.14938,-29.46342 10.8484,-9.12248 25.80609,-13.68375 44.87309,-13.68382 7.64314,7e-5 16.47804,0.82192 26.50471,2.46555 l 0,-6.04061 c -9e-5,-3.78043 -1.6438,-6.86237 -4.9311,-9.24583 -3.20532,-2.38328 -9.3692,-3.57496 -18.49166,-3.57505 -7.47892,9e-5 -17.17676,1.47942 -29.09355,4.438 -4.43804,1.06849 -7.88981,1.60269 -10.35532,1.60261 -3.36963,8e-5 -6.24611,-1.1916 -8.62945,-3.57506 -2.3012,-2.46546 -3.45179,-5.58849 -3.45177,-9.3691 -2e-5,-2.13672 0.4109,-3.98588 1.23278,-5.5475 0.82182,-1.56141 1.97241,-2.79419 3.45177,-3.69833 1.47931,-0.98612 4.56125,-2.13671 9.24583,-3.45178 6.24603,-1.72577 12.61537,-3.08183 19.10805,-4.06816 6.49256,-1.06829 12.36879,-1.6025 17.62871,-1.60261 15.69728,1.1e-4 27.86067,3.41079 36.49021,10.23205 8.71151,6.73928 13.06731,15.9851 13.06744,27.73749 l 0,52.02317 -1.68528,0 c 6.08157,10e-5 10.39628,1.1917 12.94416,3.5751 2.62978,2.3012 3.94474,5.342 3.94489,9.1225 -1.5e-4,3.6984 -1.31511,6.7392 -3.94489,9.1226 -2.54788,2.3012 -6.86259,3.4518 -12.94416,3.4518 l -23.58666,0 m 0,-45.24297 c -10.10886,-1.97239 -19.43686,-2.95861 -27.98404,-2.95866 -10.2732,5e-5 -19.1081,2.50669 -26.50471,7.51994 -4.60241,3.20526 -6.90359,6.45157 -6.90355,9.73889 -4e-5,2.3834 1.10946,4.3148 3.3285,5.7941 4.10921,2.7121 9.73889,4.0682 16.88904,4.0682 6.08164,0 12.9441,-1.1917 20.58738,-3.5751 7.72532,-2.3833 14.58778,-5.6296 20.58738,-9.73893 l 0,-10.84844" />
        <path
           sodipodi:nodetypes="cccccccccscsccccccscccccccc"
           inkscape:connector-curvature="0"
           id="path3978"
           d="m 707.9446,907.48189 0,98.86871 54.48875,0 0,-9.91585 c -1.2e-4,-6.08165 1.15047,-10.39636 3.45178,-12.94416 2.38324,-2.62986 5.46518,-3.94483 9.24583,-3.94489 3.69819,6e-5 6.69795,1.31503 8.99927,3.94489 2.38323,2.5478 3.57491,6.86251 3.57506,12.94416 l 0,35.18785 -113.70267,0 c -6.08172,0 -10.43753,-1.1506 -13.06744,-3.4518 -2.54775,-2.3834 -3.82162,-5.4653 -3.82161,-9.2458 -10e-6,-3.6984 1.27386,-6.6981 3.82161,-8.9993 2.62991,-2.3834 6.98572,-3.575 13.06744,-3.5751 l 8.67004,0 0,-98.86871 -8.67004,0 c -6.08172,1.2e-4 -10.43753,-1.15047 -13.06744,-3.45178 -2.54775,-2.38323 -3.82162,-5.46517 -3.82161,-9.24582 -10e-6,-3.78038 1.27386,-6.82123 3.82161,-9.12256 2.62991,-2.38322 6.98572,-3.5749 13.06744,-3.57505 l 42.73531,0.12328 c 6.08161,1.5e-4 10.39633,1.15074 12.94416,3.45177 2.62983,2.30133 3.94479,5.34218 3.94488,9.12256 -9e-5,3.78065 -1.31505,6.86259 -3.94488,9.24582 -2.54783,2.30131 -6.86255,3.4519 -12.94416,3.45178 l -8.79333,0" />
      </g>
    </g>
  </g>
</svg>
